<?xml version="1.0" standalone="no"?>
<!DOCTYPE svg PUBLIC "-//W3C//DTD SVG 20010904//EN"
 "http://www.w3.org/TR/2001/REC-SVG-20010904/DTD/svg10.dtd">
<svg version="1.0" xmlns="http://www.w3.org/2000/svg"
 width="353.000000pt" height="353.000000pt" viewBox="0 0 353.000000 353.000000"
 preserveAspectRatio="xMidYMid meet">
<metadata>
Created by potrace 1.14, written by Peter Selinger 2001-2017
</metadata>
<g transform="translate(0.000000,353.000000) scale(0.100000,-0.100000)"
fill="#000000" stroke="none">
<path d="M600 2659 c-204 -40 -374 -164 -478 -347 -70 -123 -119 -347 -107
-491 9 -118 48 -262 97 -361 57 -116 188 -249 298 -303 82 -40 201 -74 295
-84 57 -6 63 -9 115 -63 30 -32 78 -68 105 -82 105 -52 352 -72 468 -38 58 17
110 75 125 139 6 29 12 66 12 82 0 34 -3 33 45 13 20 -8 80 -24 133 -35 194
-41 430 1 561 99 l34 26 36 -23 c163 -101 414 -144 615 -107 199 38 322 99
427 214 159 174 184 479 53 669 l-36 53 35 39 c50 55 65 128 43 202 -35 122
-167 274 -289 334 -244 119 -589 109 -796 -25 -34 -22 -64 -40 -66 -40 -2 0
-30 18 -62 40 -88 62 -265 110 -405 110 -76 0 -194 -22 -276 -50 -67 -24 -142
-71 -204 -129 -34 -31 -51 -41 -60 -34 -7 6 -39 31 -70 56 -79 64 -185 112
-300 136 -119 26 -221 26 -348 0z m318 -105 c151 -31 294 -121 372 -233 19
-27 37 -50 40 -51 3 0 17 20 32 43 35 56 130 146 188 179 88 51 183 73 315 73
182 0 300 -42 411 -147 l51 -48 50 49 c201 194 643 200 855 12 55 -49 123
-147 139 -201 9 -30 9 -46 0 -68 -15 -35 -32 -45 -136 -76 l-80 -23 30 -16
c204 -105 284 -367 179 -582 -91 -185 -340 -298 -619 -281 -165 9 -297 56
-388 136 l-46 41 -58 -47 c-139 -113 -340 -159 -528 -119 -83 18 -193 69 -255
118 l-45 37 -5 -155 c-5 -141 -7 -156 -26 -176 -27 -27 -85 -38 -194 -38 -167
-1 -287 56 -341 162 -19 37 -20 37 -82 37 -98 0 -236 33 -317 76 -106 55 -199
153 -255 268 -59 119 -78 209 -77 361 1 146 23 240 84 358 49 93 145 198 220
239 146 80 320 106 486 72z"/>
<path d="M616 2464 c-139 -34 -267 -137 -331 -267 -48 -97 -64 -163 -71 -282
-18 -316 141 -562 405 -630 45 -11 97 -16 169 -14 l105 3 24 -54 c29 -65 54
-95 108 -123 35 -19 57 -22 170 -22 l130 0 3 133 3 133 -63 -7 c-66 -7 -138
12 -138 36 0 7 23 37 51 68 60 68 114 172 131 253 7 32 15 59 18 59 3 0 11
-29 18 -65 37 -198 170 -343 366 -400 72 -21 254 -16 332 9 78 25 170 91 220
158 l43 58 30 -44 c63 -91 159 -152 288 -182 84 -20 312 -14 384 9 134 44 239
128 284 229 49 108 35 253 -31 350 -55 79 -151 125 -364 172 -156 35 -199 52
-206 82 -16 64 20 94 112 94 72 0 112 -18 157 -71 l37 -43 78 23 c218 64 213
61 206 85 -23 74 -114 171 -199 214 -146 72 -415 69 -565 -8 -77 -39 -180
-168 -180 -225 0 -29 -15 -14 -42 44 -75 157 -224 241 -430 241 -155 0 -256
-34 -349 -118 -90 -81 -144 -180 -174 -322 -11 -51 -13 -53 -19 -25 -4 17 -14
55 -22 85 -52 181 -191 316 -374 365 -69 19 -236 18 -314 -1z m236 -271 c70
-42 101 -175 87 -388 -8 -132 -23 -188 -61 -226 -85 -84 -209 -42 -253 86 -42
120 -27 386 26 472 43 69 134 94 201 56z m1090 0 c42 -25 67 -72 76 -140 l7
-58 110 3 c61 1 129 5 152 8 l41 5 33 -61 c59 -111 144 -162 356 -212 169 -40
211 -55 230 -84 20 -31 10 -69 -23 -90 -31 -21 -151 -24 -206 -5 -39 13 -108
81 -108 106 0 20 -24 19 -150 -5 -58 -11 -106 -20 -108 -20 -2 0 0 15 3 34 9
43 10 43 -176 51 l-145 7 -12 -52 c-21 -91 -73 -140 -147 -140 -129 0 -182
110 -172 360 6 154 25 220 77 272 33 33 44 38 85 38 27 0 60 -8 77 -17z"/>
</g>
</svg>
